<svg
   xmlns:dc="http://purl.org/dc/elements/1.1/"
   xmlns:cc="http://creativecommons.org/ns#"
   xmlns:rdf="http://www.w3.org/1999/02/22-rdf-syntax-ns#"
   xmlns:svg="http://www.w3.org/2000/svg"
   xmlns="http://www.w3.org/2000/svg"
   xmlns:sodipodi="http://sodipodi.sourceforge.net/DTD/sodipodi-0.dtd"
   xmlns:inkscape="http://www.inkscape.org/namespaces/inkscape"
   width="260px"
   height="210px"
   viewBox="0 0 26.080141 21.663328"
   version="1.1"
   id="svg8"
   inkscape:version="0.92.2 5c3e80d, 2017-08-06"
   sodipodi:docname="rjk.svg">
  <defs
     id="defs2" />
  <sodipodi:namedview
     id="base"
     pagecolor="#ffffff"
     bordercolor="#666666"
     borderopacity="1.0"
     inkscape:pageopacity="0.0"
     inkscape:pageshadow="2"
     inkscape:zoom="2"
     inkscape:cx="1.1940034"
     inkscape:cy="57.603228"
     inkscape:document-units="mm"
     inkscape:current-layer="g3877"
     showgrid="false"
     inkscape:window-width="1440"
     inkscape:window-height="775"
     inkscape:window-x="0"
     inkscape:window-y="1"
     inkscape:window-maximized="1"
     fit-margin-top="0"
     fit-margin-left="0"
     fit-margin-right="0"
     fit-margin-bottom="0" />
  <metadata
     id="metadata5">
    <rdf:RDF>
      <cc:Work
         rdf:about="">
        <dc:format>image/svg+xml</dc:format>
        <dc:type
           rdf:resource="http://purl.org/dc/dcmitype/StillImage" />
        <dc:title></dc:title>
      </cc:Work>
    </rdf:RDF>
  </metadata>
  <g
     inkscape:label="Layer 1"
     inkscape:groupmode="layer"
     id="layer1"
     transform="translate(-59.28576,-118.33564)">
    <g
       aria-label="RJ"
       style="font-style:normal;font-weight:normal;font-size:10.58333302px;line-height:1.25;font-family:sans-serif;letter-spacing:0px;word-spacing:0px;fill:#F0EAE9;fill-opacity:1;stroke:none;stroke-width:0.26458332"
       id="text12"
       transform="matrix(1.6342163,0,0,1.3490928,-44.617057,-46.338864)" />
    <g
       id="g80"
       transform="matrix(0.00191509,0,0,-0.00191509,58.405305,141.2144)"
       style="fill:#3f51b5;stroke:none" />
    <g
       id="g3850">
      <g
         id="g3858" />
      <g
         id="g3877">
        <g
           id="g3904">
          <g
             transform="matrix(1.4221911,0,0,1.4221911,-29.286716,-53.897789)"
             id="text23"
             style="font-style:normal;font-weight:normal;font-size:10.58333302px;line-height:1.25;font-family:sans-serif;letter-spacing:0px;word-spacing:0px;fill:#F0EAE9;fill-opacity:1;stroke:none;stroke-width:0.26458332"
             aria-label="R">
            <path
               id="path25"
               style="fill:#F0EAE9;font-style:normal;font-variant:normal;font-weight:normal;font-stretch:normal;font-family:Tahoma;-inkscape-font-specification:Tahoma;stroke-width:0.26458332"
               d="m 69.525751,134.81984 h -1.328085 l -1.51781,-3.05924 h -1.167888 v 3.05924 h -1.023193 v -7.69462 h 1.984375 c 0.440972,0 0.809597,0.0241 1.105876,0.0724 0.299723,0.0483 0.583944,0.16023 0.852661,0.3359 0.268717,0.17225 0.480591,0.39446 0.63562,0.66662 0.158474,0.27217 0.237711,0.60979 0.237711,1.01286 0,0.565 -0.142971,1.03698 -0.428914,1.41594 -0.285943,0.37896 -0.675238,0.65973 -1.167887,0.84232 z m -1.290435,-5.52937 c 0,-0.22393 -0.03962,-0.42203 -0.118855,-0.59428 -0.07924,-0.1757 -0.201538,-0.31867 -0.366903,-0.42892 -0.144694,-0.0965 -0.313504,-0.16364 -0.506429,-0.20154 -0.192925,-0.0413 -0.432359,-0.062 -0.718302,-0.062 h -1.012859 v 2.90422 h 0.89917 c 0.292833,0 0.556383,-0.0258 0.79065,-0.0775 0.234266,-0.0517 0.434081,-0.15846 0.599446,-0.32039 0.148139,-0.14469 0.25666,-0.31695 0.325562,-0.51676 0.07235,-0.19982 0.10852,-0.43409 0.10852,-0.7028 z" />
          </g>
          <path
             transform="matrix(1.6342163,0,0,1.3490928,-44.617058,-46.338863)"
             d="m 71.141465,127.51089 h 1.043864 v 7.80625 c 0,1.13854 -0.177422,1.62302 -0.532267,2.04332 -0.3514,0.4203 -1.059859,0.76038 -1.841896,0.76038 h -0.397908 l -0.01181,-1.10871 h 0.325561 c 0.461643,0 0.957461,-0.18013 1.146942,-0.43853 0.18948,-0.25838 0.267516,-0.58811 0.267516,-1.25646 z"
             style="font-style:normal;font-variant:normal;font-weight:normal;font-stretch:normal;font-size:10.58333302px;line-height:1.25;font-family:'Geeza Pro';-inkscape-font-specification:'Geeza Pro';letter-spacing:0px;word-spacing:0px;fill:#F0EAE9;fill-opacity:1;stroke:none;stroke-width:0.26458332"
             id="path18"
             inkscape:connector-curvature="0"
             sodipodi:nodetypes="ccscsccscsc" />
          <path
             sodipodi:nodetypes="cccccccccccccccccccccccccc"
             style="fill:#76ADB5;stroke-width:0.03307291"
             d="m 72.107779,126.5786 c -1.124257,-0.31535 -1.227819,-0.45725 -2.433769,-0.54276 -1.933169,-0.13708 -4.062065,-0.0131 -5.272033,0.30705 l -0.279931,0.0741 -0.07955,-0.0997 c -0.754391,-0.52932 -1.782577,-0.75774 -1.972588,-0.76354 -0.569066,-0.0152 -0.757622,-0.007 -1.175811,0.0515 -0.569786,0.0795 -1.246299,0.22303 -1.46823,0.31144 -0.08331,0.0332 -0.146146,0.0466 -0.139645,0.0298 1.736232,-2.58742 3.787984,-5.003 6.587891,-6.12507 0.147026,-0.0564 0.546149,-0.23422 0.886937,-0.39522 0.340791,-0.161 0.775036,-0.34154 0.964992,-0.40119 0.676796,-0.21252 1.719065,-0.4105 2.830839,-0.53771 1.51152,-0.17296 2.015526,-0.18945 2.831071,-0.0926 1.729846,0.16209 3.04824,0.50242 4.694973,1.17198 4.44637,2.15954 5.879614,4.56486 7.282975,6.87577 -0.02927,0.006 -0.169428,-0.0436 -0.311456,-0.10997 -0.33279,-0.15551 -0.511761,-0.21983 -0.91263,-0.32799 -1.090228,-0.29416 -1.891982,-0.18094 -2.574645,0.25327 l -0.17208,0.10945 -0.530724,-0.0958 c -1.139577,-0.20572 -1.082983,-0.30278 -2.0968,-0.3287 -2.14373,-0.0549 -5.036351,0.24136 -5.929754,0.71045 -0.08072,0.0424 -0.163448,0.0751 -0.18384,0.0727 -0.0204,-0.002 -0.266174,-0.0686 -0.546187,-0.14718 z"
             id="path3845"
             inkscape:connector-curvature="0" />
          <g
             aria-label="K"
             style="font-style:normal;font-weight:normal;font-size:15.01089382px;line-height:1.25;font-family:sans-serif;letter-spacing:0px;word-spacing:0px;fill:#F0EAE9;fill-opacity:1;stroke:none;stroke-width:0.37527233"
             id="text3862"
             transform="translate(0.05949785,-0.60666133)">
            <path
               d="m 75.452753,127.50545 h 1.480567 v 4.62494 l 3.852457,-4.62494 h 1.90568 l -4.372854,5.10136 4.293598,5.84164 h -1.949657 l -3.729224,-5.26993 v 5.26993 h -1.480567 z"
               style="stroke-width:0.37527233"
               id="path3864"
               inkscape:connector-curvature="0"
               sodipodi:nodetypes="cccccccccccc" />
          </g>
        </g>
      </g>
    </g>
  </g>
</svg>
